<?xml version="1.0" encoding="UTF-8" standalone="no"?>
<!-- Generator: Adobe Illustrator 13.0.0, SVG Export Plug-In . SVG Version: 6.00 Build 14948)  -->

<svg
   xmlns:dc="http://purl.org/dc/elements/1.1/"
   xmlns:cc="http://creativecommons.org/ns#"
   xmlns:rdf="http://www.w3.org/1999/02/22-rdf-syntax-ns#"
   xmlns:svg="http://www.w3.org/2000/svg"
   xmlns="http://www.w3.org/2000/svg"
   xmlns:sodipodi="http://sodipodi.sourceforge.net/DTD/sodipodi-0.dtd"
   xmlns:inkscape="http://www.inkscape.org/namespaces/inkscape"
   version="1.1"
   id="Layer_1"
   x="0px"
   y="0px"
   width="639.787px"
   height="254.388px"
   viewBox="0 0 639.787 254.388"
   enable-background="new 0 0 639.787 254.388"
   xml:space="preserve"
   inkscape:version="0.48.5 r10040"
   sodipodi:docname="gpars-rgb-reverse-grey.svg"><metadata
     id="metadata3095"><rdf:RDF><cc:Work
         rdf:about=""><dc:format>image/svg+xml</dc:format><dc:type
           rdf:resource="http://purl.org/dc/dcmitype/StillImage" /></cc:Work></rdf:RDF></metadata><defs
     id="defs3093" /><sodipodi:namedview
     pagecolor="#ffffff"
     bordercolor="#666666"
     borderopacity="1"
     objecttolerance="10"
     gridtolerance="10"
     guidetolerance="10"
     inkscape:pageopacity="0"
     inkscape:pageshadow="2"
     inkscape:window-width="1535"
     inkscape:window-height="909"
     id="namedview3091"
     showgrid="false"
     inkscape:zoom="1.4536088"
     inkscape:cx="319.89349"
     inkscape:cy="127.194"
     inkscape:window-x="0"
     inkscape:window-y="27"
     inkscape:window-maximized="0"
     inkscape:current-layer="g3069" /><g
     id="g3069"><path
       fill="#67B3FE"
       d="M446.205,175.402c-6.823,0-12.632,0.726-17.423,2.177c-5.372,1.307-9.728,3.34-12.923,5.809   c-3.339,2.323-5.517,5.518-6.533,9.292c-1.161,3.775-0.727,8.131,1.307,13.068l15.681,33.829   c2.324,4.212,6.099,7.842,11.036,10.601c4.937,2.612,10.453,4.064,16.261,4.21c5.808-0.146,9.729-1.598,12.052-4.21   c1.742-2.614,1.597-5.954-0.437-9.729l-21.488-33.829c-1.598-2.47-2.469-4.646-2.323-6.534c0.146-2.179,1.017-3.775,2.323-5.227   c1.307-1.307,3.34-2.179,5.809-2.904c2.467-0.871,5.517-1.307,9.001-1.307c4.212-0.146,7.115-0.871,8.857-2.324   c1.451-1.597,1.162-3.483-0.726-5.807c-2.324-2.033-5.373-3.631-9.147-5.082C453.901,175.982,449.98,175.257,446.205,175.402z"
       id="path3071" /><path
       fill="#67B3FE"
       d="M496.733,175.11c-4.355,0-7.985,0.437-10.454,1.598c-3.05,0.727-5.082,1.888-6.243,3.631   c-1.307,1.451-1.743,3.339-1.452,5.807c0.436,2.178,1.888,4.647,4.356,7.261c2.613,2.903,6.243,5.662,10.599,8.275   c4.356,2.759,9.438,5.372,14.81,7.55c5.518,2.324,11.326,4.066,17.279,5.518c6.098,1.453,11.76,2.179,17.133,2.179h29.184   c4.646,0,8.712,1.452,12.342,4.211c3.775,2.903,3.34,4.501-1.452,4.501h-46.463c-4.791,0-7.55,1.451-7.985,4.21   c-0.871,2.469,0.436,5.663,3.921,9.292c3.774,4.211,9.001,7.695,15.535,10.745c6.39,2.903,12.487,4.211,18.005,4.211h53.141   c7.26,0,12.633-0.871,16.262-2.613c3.34-2.033,4.792-4.647,4.502-7.695c-0.146-3.05-1.889-6.68-5.228-10.6   c-3.484-3.775-8.421-7.695-14.811-12.051c-5.226-3.63-11.033-6.825-17.423-9.729c-6.389-3.049-12.631-5.662-18.875-7.84   s-12.197-3.775-18.004-5.082c-5.809-1.306-11.325-1.887-15.972-1.742h-26.861c-1.888-0.145-3.63-0.436-5.517-1.162   c-1.743-0.58-3.05-1.306-3.921-2.177c-1.161-1.017-1.452-1.743-1.161-2.179c0.289-0.726,1.307-1.161,3.193-1.161h38.913   c3.63,0,5.808-0.726,6.534-2.469c0.289-1.597-0.872-3.484-3.631-5.228c-2.903-2.031-6.533-3.63-11.18-5.081   c-4.502-1.597-8.712-2.323-12.487-2.179H496.733z"
       id="path3073" /><path
       fill="#67B3FE"
       d="M409.617,249.451c2.903-3.049,3.629-6.389,2.177-10.454l-13.066-32.524   c-1.889-4.5-4.793-8.711-8.713-12.486c-4.065-3.92-8.566-7.114-13.503-9.728c-4.937-2.469-10.308-4.646-16.262-6.099   c-5.808-1.452-11.905-2.468-18.004-2.758c-1.162-0.146-2.033-0.146-2.904-0.146s-2.033,0-2.903,0   c-10.454,0-19.893,1.451-28.313,4.501c-9.002,2.903-16.116,7.114-21.634,12.776c-2.178,1.889-3.92,4.211-5.227,6.68   c-1.597,2.178-2.759,4.646-3.34,7.405c-0.726,2.612-1.016,5.371-0.871,7.985c0.291,2.758,1.017,5.518,2.178,8.566   c3.63,8.131,10.89,15.245,21.635,21.344c11.616,6.243,25.263,9.438,40.944,9.583c6.099,0,11.616-0.437,17.135-1.308   c4.936-1.161,9.581-2.612,14.083-4.355c0.726-0.29,1.598-0.58,2.469-1.016c0.726-0.291,1.452-0.727,2.468-0.871   c5.518,4.937,12.051,7.55,19.166,7.55C402.356,254.098,406.422,252.501,409.617,249.451z M327.581,191.809   c2.904-0.872,6.099-1.307,9.438-1.161c3.34-0.146,6.68,0.289,9.873,1.161c3.34,0.726,6.244,1.743,9.003,3.194   c2.468,1.307,4.791,3.05,6.679,5.082c1.888,2.033,3.049,4.211,3.631,6.534c0.435,2.467,0.145,4.79-0.727,7.114   c-1.308,2.323-2.904,4.355-5.228,6.243c-2.468,1.597-5.372,3.194-8.712,4.501c-3.775,0.871-7.695,1.451-12.196,1.451   c-3.774,0-7.695-0.58-11.18-1.451c-3.775-1.452-6.824-2.904-9.438-4.792c-2.613-1.742-4.791-3.774-6.389-5.952   c-1.452-2.324-2.032-4.791-1.743-7.114c0-2.323,1.017-4.501,2.76-6.534c1.451-2.032,3.484-3.775,5.952-5.082   C321.773,193.552,324.387,192.534,327.581,191.809z"
       id="path3075" /><path
       fill="#67B3FE"
       d="M174.69,171.336c-0.435-3.484-3.048-6.243-7.84-8.275c-4.501-1.888-10.454-2.759-17.858-2.759   c-5.953,0-12.196,0.436-18.875,1.597c-6.825,1.162-13.648,2.614-20.473,4.646c-7.114,1.742-14.084,4.211-20.908,7.114   c-7.259,3.049-13.793,6.099-19.456,9.729L28.77,208.797c-11.906,7.26-20.182,14.519-24.684,21.198   c-5.082,7.55-5.372,13.503-1.162,17.859c2.468,1.742,5.663,3.193,9.728,4.501c3.775,1.016,8.857,1.597,14.81,1.742   c6.099-0.146,12.632-0.727,19.747-1.742c6.969-1.308,13.938-2.759,20.908-4.501c15.681-4.356,30.636-10.31,44.865-17.859   c12.777-6.68,22.796-13.938,30.346-21.198l10.018-10.31c2.468-2.613,3.049-4.791,1.887-6.389c-1.161-1.597-4.065-2.468-8.275-2.322   h-15.101c-4.355-0.146-9.001,0.726-13.938,2.322c-5.227,1.598-9.292,3.775-12.341,6.389c-3.63,2.759-4.937,5.082-4.21,7.261   c0.726,1.742,3.484,2.758,8.276,3.049c-2.614,2.032-5.518,4.065-8.712,5.952c-3.92,2.033-7.695,3.775-11.615,5.373   c-4.356,1.451-8.567,2.613-12.632,3.63c-4.066,0.726-7.841,1.017-11.325,1.162c-3.485-0.146-6.099-0.437-8.131-1.162   c-1.887-1.017-2.904-2.179-2.904-3.63c0-1.598,0.582-3.34,2.033-5.373c1.307-1.887,3.63-3.92,6.824-5.952l36.008-25.409   c1.742-1.598,4.356-3.049,7.26-4.211c2.759-1.162,5.663-2.323,8.566-3.194s5.953-1.597,9.147-2.033   c2.904-0.726,5.517-0.87,8.131-0.726c3.485-0.145,6.098,0.29,7.84,1.307s2.613,2.323,2.613,3.921   c-0.29,1.161,0.291,2.032,1.452,2.904c1.452,0.726,3.485,1.161,6.389,1.161c3.92-0.146,8.13-0.871,12.631-2.178   c4.21-1.599,7.551-3.485,9.583-5.518c1.162-1.017,1.743-2.178,1.743-3.049C174.546,171.627,174.546,171.481,174.69,171.336z"
       id="path3077" /><path
       fill="#67B3FE"
       d="M191.533,173.949c-5.227,2.759-9.438,5.953-12.487,9.438l-50.673,55.028   c-3.92,4.065-5.227,7.695-4.065,10.89c1.161,3.05,4.646,4.646,10.744,4.792c5.517-0.146,11.761-1.742,18.44-4.792   c6.243-3.194,11.034-6.824,14.374-10.89l20.182-27.732c2.469,1.889,5.373,3.194,8.857,4.065c3.485,0.727,7.405,1.162,11.616,1.162   c8.276,0,16.407-1.017,24.829-3.049c7.84-1.888,15.1-4.502,21.488-7.841c5.953-3.049,11.035-6.534,15.1-10.31   c3.921-3.775,6.389-7.549,7.551-11.324c0.871-3.63,0.726-6.824-0.726-9.874c-1.743-3.049-4.066-5.372-7.55-7.26   c-3.194-1.888-7.26-3.339-11.906-4.355c-4.501-1.161-9.583-1.597-14.956-1.597c-5.808,0-11.616,0.436-17.569,1.597   c-5.952,1.162-11.76,2.759-17.278,4.646C201.697,168.577,196.325,171.046,191.533,173.949z M208.085,191.809   c-1.016-1.307-1.597-2.613-1.597-4.065c0-1.307,0.581-2.758,1.597-4.355c1.162-1.598,2.759-3.049,4.646-4.211   s4.065-2.323,6.389-3.194c2.323-0.872,4.937-1.597,7.696-2.033c2.468-0.726,5.226-0.87,7.84-0.726c2.468-0.145,4.646,0,6.824,0.726   c1.888,0.437,3.485,1.161,4.937,2.033c1.016,0.871,2.033,2.032,2.468,3.194c0.291,1.162,0,2.613-0.726,4.211   c-1.598,3.339-4.792,5.953-10.019,8.421c-5.517,2.323-11.18,3.34-16.988,3.34c-3.048,0-5.808-0.29-7.985-0.726   C210.989,193.552,209.248,192.68,208.085,191.809z"
       id="path3079" /><path
       fill="#333333"
       d="M506.462,68.973c-6.099,3.485-11.761,7.551-16.698,12.342c-5.227,4.066-9.292,8.422-12.196,12.923   c-3.049,4.5-5.082,8.566-5.953,12.342c-0.726,3.484-0.581,6.534,0.291,9.292c0.727,2.323,2.469,4.356,5.227,5.808   c2.468,1.452,5.663,2.323,9.873,2.323l22.796,0.435c3.63,0,4.356,1.307,1.888,3.63c-2.613,2.613-5.663,3.921-9.001,3.921   l-33.251-0.872c-3.484,0.146-7.26,1.161-11.034,3.049c-3.775,1.887-6.533,4.065-7.985,6.388c-1.888,2.468-2.324,4.501-1.163,6.243   c1.018,1.307,3.05,2.033,6.389,2.178l29.911,0.871c3.92,0,8.275-0.435,12.922-1.016c4.355-1.017,8.857-2.323,13.358-3.92   c4.501-1.888,9.147-4.211,13.647-6.68c4.646-2.904,9.003-6.098,13.213-9.438c3.485-3.339,6.243-6.534,8.566-9.438   c1.743-3.339,2.76-6.534,3.05-9.147c0-2.904-1.161-5.228-3.484-6.825c-2.469-1.887-6.099-2.758-10.89-2.758l-26.426-0.581   c-1.742,0-2.613-0.582-2.613-1.598c-0.291-1.162,0.145-2.323,1.307-3.63c1.161-1.597,2.759-2.758,4.501-3.775   c2.178-1.162,4.065-1.598,5.808-1.598l42.107,0.581c4.064,0,9.292-1.306,15.971-4.21c6.534-3.194,12.342-6.969,17.424-11.179   c4.355-4.356,7.26-8.422,8.421-12.197c1.017-4.21-1.161-6.243-6.389-6.243l-50.237-0.435c-6.534,0-12.922,1.452-19.602,3.92   C519.528,62.004,512.851,65.054,506.462,68.973z"
       id="path3081"
       style="fill:#cccccc;fill-opacity:1" /><path
       fill="#333333"
       d="M486.134,61.569c-1.161-3.775-4.211-5.808-9.292-5.808c-9.147,0.435-18.295,2.323-27.877,6.098   c-9.148,3.195-17.715,7.405-25.555,12.778c-7.551,5.082-13.793,10.89-19.166,17.423c-4.937,5.808-8.421,11.616-10.599,18.004   l-9.438,29.185c-0.727,2.613-0.291,4.5,1.451,6.243c1.452,1.452,3.631,2.178,7.115,2.178c3.049,0,6.098-0.436,8.856-1.742   c2.613-1.597,4.646-3.484,6.243-5.517l13.067-28.604c1.307-3.048,3.194-5.808,5.809-8.421c2.613-2.758,5.808-5.227,9.292-7.26   c3.049-2.178,6.679-3.775,10.454-4.791c3.775-1.308,7.405-1.888,11.035-1.743c4.646-0.146,9.438-1.597,14.374-4.21   c4.791-3.049,8.566-6.825,11.761-11.18C486.279,69.409,487.005,65.199,486.134,61.569z"
       id="path3083"
       style="fill:#cccccc;fill-opacity:1" /><path
       fill="#333333"
       d="M211.135,7.266c-10.164-4.937-19.602-7.26-28.458-7.26c-9.438,0-16.697,2.468-21.779,7.696   c-5.227,4.791-8.566,11.035-10.164,18.439c-0.871,6.97-0.145,14.52,2.178,23.087c2.034,7.55,5.518,15.1,10.6,22.65l41.67,62.724   c1.452,2.323,3.775,4.501,7.115,6.389c3.048,1.597,6.243,2.469,9.582,2.614c2.759,0,4.938-0.726,6.389-2.323   c1.161-1.597,1.016-3.775-0.145-6.244l-12.342-22.505c3.775,1.743,7.405,3.195,11.18,4.211c3.194,0.726,6.244,1.161,9.147,1.307   c6.098,0.145,11.325-0.726,16.262-2.469c4.355-2.033,8.131-4.937,11.326-8.566c2.758-3.775,4.646-8.421,5.953-13.648   c1.016-6.244,0.726-12.922-1.017-20.473c-2.033-8.131-5.518-16.117-10.455-23.958c-5.808-8.857-12.341-16.552-20.182-23.521   C229.72,18.011,220.572,12.057,211.135,7.266z M224.057,55.18c2.904,2.178,5.518,4.938,7.985,8.422   c2.178,2.904,3.775,5.953,5.082,9.001c2.178,6.389,2.033,11.471-0.29,15.537c-2.614,3.63-6.534,5.372-11.906,5.227   c-2.613,0-5.372-0.436-8.276-1.307c-3.049-1.308-5.808-2.759-8.567-4.356c-2.613-2.033-5.227-4.211-7.84-6.824   c-2.323-2.613-4.501-5.518-6.243-8.712c-1.743-3.194-2.758-6.243-2.904-9.147c-0.726-3.049-0.581-5.808,0.29-7.986   c0.726-2.178,2.323-4.211,4.792-5.663c2.178-1.452,4.792-2.178,7.986-2.033c3.194,0,6.679,0.726,10.164,2.178   C217.523,51.115,220.863,53.002,224.057,55.18z"
       id="path3085"
       style="fill:#cccccc;fill-opacity:1" /><path
       fill="#333333"
       d="M179.046,109.628l-8.856-12.486c-2.759-3.63-6.389-6.824-10.745-9.438   c-4.792-2.904-9.438-4.356-13.648-4.356l-14.083-0.145c-4.211-0.291-6.389,1.016-6.534,3.919c-0.582,2.614,0.871,5.664,4.356,9.438   c3.048,3.485,6.969,6.534,11.76,9.002c4.355,2.468,8.567,3.63,12.341,3.63c1.743,2.178,2.904,4.355,3.485,6.098   c0.436,1.742,0.581,3.339,0.436,4.792c-0.436,1.161-1.307,2.178-2.613,2.904c-1.452,0.435-3.34,0.726-5.518,0.871   c-2.323-0.146-4.501-0.436-6.824-1.162c-3.049-0.871-5.808-1.887-8.567-3.048c-3.049-1.597-5.808-3.194-8.421-4.937   c-2.758-1.887-5.227-4.065-7.26-6.243L80.459,70.716c-3.34-3.049-5.663-5.953-7.55-8.857c-1.888-3.194-2.904-5.808-3.194-7.986   c-0.291-2.178,0.436-3.92,2.178-5.372c1.162-1.452,3.484-2.178,6.534-2.178c4.21,0,9.292,1.452,15.245,4.356   c5.518,2.323,10.89,5.663,16.698,9.728c3.484,2.614,7.114,4.937,10.744,6.534c3.775,1.743,6.97,2.614,10.019,2.614   c4.065,0,6.534-1.452,7.259-4.501c0.582-3.63-1.016-7.986-4.646-12.922c-2.323-3.34-5.518-6.534-9.002-9.583   c-0.29-0.436-0.726-0.726-0.871-1.162c-14.665-11.76-29.765-21.488-45.446-29.039C61.439,4.072,47.064,0.006,35.449,0.006   c-8.856-0.145-14.81,2.323-17.714,7.26c-2.904,4.501-3.194,10.454-0.871,17.568c1.887,6.97,6.243,14.52,12.776,22.941   c5.518,7.404,12.487,15.1,21.053,22.65l41.962,37.75c7.84,7.115,16.842,13.358,26.861,18.731   c9.002,5.082,17.714,8.856,26.426,11.616c3.63,0.871,7.114,1.742,10.599,2.468c3.34,0.581,6.534,1.017,9.874,1.162   c2.904,0,5.662-0.291,8.131-0.726c2.323-0.582,4.5-1.307,6.389-2.178c3.775-2.469,5.662-6.099,5.953-10.89   C186.742,123.131,184.128,116.888,179.046,109.628z"
       id="path3087"
       style="fill:#cccccc;fill-opacity:1" /><path
       fill="#333333"
       d="M363.3,62.295c-6.39-4.066-13.504-6.534-21.054-7.55c-1.452-0.291-2.613-0.291-3.63-0.291   c-1.308,0-2.613,0-3.774,0c-13.213-0.145-24.538,3.34-34.122,10.745c-8.566,6.679-14.229,14.955-16.697,24.828   c-1.017,3.195-1.452,6.39-1.452,9.729c-0.436,3.049-0.291,6.099,0.436,9.292c0.581,3.049,1.597,5.953,3.049,8.857   c1.161,2.469,2.613,5.082,4.501,7.405c4.501,6.388,10.454,11.47,17.858,15.245c7.114,3.485,14.811,5.228,23.231,5.372   c3.34,0.146,6.389,0,9.438-0.145c2.759-0.582,5.662-1.308,8.566-2.178c0.437-0.291,1.017-0.581,1.888-0.581   c0.291-0.145,0.727-0.29,1.453-0.29c1.887,2.614,4.791,3.92,9.001,4.065c2.469,0.146,5.082-0.58,8.131-2.032   c2.904-1.743,4.502-3.63,5.082-5.953l7.986-27.877c1.451-5.953,1.888-11.615,1.017-17.279c-1.162-6.098-3.34-11.76-6.534-17.132   C373.898,70.861,369.107,66.069,363.3,62.295z M342.972,89.882c2.904,1.162,5.227,2.904,7.55,5.227   c1.889,2.178,3.341,4.646,4.356,7.405c0.727,2.614,1.162,5.227,1.017,7.985c-0.437,2.614-1.452,5.228-2.903,7.551   c-1.743,2.323-3.485,4.21-5.519,5.808c-2.178,1.597-4.501,2.759-7.26,3.63c-2.759,0.581-5.517,0.872-8.13,0.872   c-2.904,0-5.518-0.582-7.841-1.452c-2.759-1.017-4.938-2.323-6.534-3.92c-2.322-1.598-4.211-3.485-5.518-5.808   s-2.178-4.791-2.323-7.55c-0.146-2.759,0-5.372,1.017-7.986c1.162-2.613,3.05-5.082,5.372-7.114c2.033-2.323,4.501-3.92,7.55-5.082   c2.904-1.452,6.099-2.032,9.583-2.032C336.729,87.414,340.068,88.14,342.972,89.882z"
       id="path3089"
       style="fill:#cccccc;fill-opacity:1" /></g></svg>